<svg version="1.1" xmlns="http://www.w3.org/2000/svg" viewBox="-313.2 -1296.2 7253.47080078125 2023.4"><desc>Created with Snap</desc><defs></defs><g><g><g transform="matrix(0.5,0,0,-0.5,0,0)"><g transform="matrix(1,0,0,1,0,0)"><path d="M555 -14L37 2Q27 -2 16 -2Q6 -2 -3 11Q-12 25 -12 55Q-12 86 18 133Q48 180 59 226Q70 273 113 423Q156 573 193 775Q230 977 303 1316Q376 1656 428 1911Q434 1931 452 1945Q470 1960 487 1960Q514 1960 522 1925Q476 1722 393 1294Q310 867 273 714Q236 561 205 405Q175 249 133 111Q351 74 487 74L530 74L710 82Q748 82 844 94Q879 85 879 59Q879 42 864 24Q849 6 829 0Q687 -14 555 -14Z" fill="#143d59" style=""></path></g><g transform="matrix(1,0,0,1,928,0)"><path d="M518 168Q553 168 553 131Q553 88 448 34Q343 -20 273 -20Q203 -20 168 3Q133 26 111 67Q68 147 68 260Q68 460 128 637Q188 814 288 930Q388 1047 504 1047Q566 1047 601 995Q637 944 637 874Q637 743 568 652Q500 561 400 503Q300 445 170 393L166 246Q166 74 270 74Q326 74 387 106Q449 139 476 153Q503 168 518 168ZM543 870Q543 950 476 950Q416 950 335 842Q254 734 201 557Q188 514 186 492Q226 514 268 534Q310 554 350 576Q442 627 492 695Q543 764 543 870Z" fill="#143d59" style=""></path></g><g transform="matrix(1,0,0,1,1592,0)"><path d="M426 1378Q711 1356 711 1028Q711 701 486 293Q412 160 317 35Q286 -6 262 -6Q211 -6 205 37Q169 291 147 500Q125 710 84 1012Q90 1032 107 1046Q125 1061 140 1061Q169 1061 178 1026Q200 825 228 607Q256 389 285 143Q434 378 493 513Q614 794 614 1010Q614 1227 488 1275Q452 1289 422 1293Q392 1297 380 1303Q369 1309 369 1327Q369 1371 426 1378Z" fill="#143d59" style=""></path></g><g transform="matrix(1,0,0,1,2292,0)"><path d="M518 168Q553 168 553 131Q553 88 448 34Q343 -20 273 -20Q203 -20 168 3Q133 26 111 67Q68 147 68 260Q68 460 128 637Q188 814 288 930Q388 1047 504 1047Q566 1047 601 995Q637 944 637 874Q637 743 568 652Q500 561 400 503Q300 445 170 393L166 246Q166 74 270 74Q326 74 387 106Q449 139 476 153Q503 168 518 168ZM543 870Q543 950 476 950Q416 950 335 842Q254 734 201 557Q188 514 186 492Q226 514 268 534Q310 554 350 576Q442 627 492 695Q543 764 543 870Z" fill="#143d59" style=""></path></g><g transform="matrix(1,0,0,1,2956,0)"><path d="M391 125Q436 125 436 79Q436 34 376 9Q317 -16 240 -16Q164 -16 128 25Q92 66 92 125Q92 184 98 233Q105 283 121 371Q137 459 158 569Q179 679 205 805Q231 931 258 1062Q285 1193 312 1322Q340 1451 365 1567Q390 1684 411 1781Q432 1879 446 1946Q455 1978 492 1978Q535 1978 535 1931L535 1905Q496 1718 458 1541Q420 1364 328 927Q237 490 210 336Q184 182 184 151Q184 120 203 96Q222 72 247 72Q273 72 294 80Q315 89 335 98Q355 108 371 116Q387 125 391 125Z" fill="#143d59" style=""></path></g><g transform="matrix(1,0,0,1,3491,0)"><path fill="#143d59" style=""></path></g><g transform="matrix(1,0,0,1,4341,0)"><path d="M1346 1968Q1382 1968 1382 1933Q1382 1912 1360 1859Q1338 1807 1323 1753Q1308 1699 1283 1594Q1259 1489 1232 1368Q1206 1248 1178 1120Q1077 646 1023 484Q969 322 926 241Q788 -20 476 -20Q308 -20 204 96Q100 212 100 373Q100 443 117 492Q152 690 182 869Q213 1049 264 1330Q316 1612 406 1937Q427 1968 450 1968Q494 1968 494 1933Q492 1921 487 1908Q483 1896 479 1884L440 1759Q396 1546 328 1171Q261 797 223 613Q186 430 186 352Q186 234 262 154Q338 74 477 74Q695 74 802 206Q861 278 888 358L932 487Q1000 694 1105 1186Q1211 1679 1274 1888Q1285 1925 1306 1946Q1327 1968 1346 1968Z" fill="#143d59" style=""></path></g><g transform="matrix(1,0,0,1,5650,0)"><path d="M354 905L326 758Q472 1038 642 1038Q731 1038 770 985Q809 933 809 830Q809 641 755 444Q701 248 593 110Q486 -27 340 -27Q284 -27 250 -3Q216 21 195 78Q144 -154 98 -384Q53 -613 4 -799Q-16 -840 -53 -840Q-84 -840 -88 -799Q-22 -540 18 -331Q58 -122 79 -10Q101 102 140 311Q180 521 268 967L268 1012Q268 1032 286 1050Q305 1069 329 1069Q354 1069 365 1050Q377 1031 377 1013Q377 996 374 982Q371 968 367 954Q363 941 359 928Q355 915 354 905ZM238 227Q238 70 354 70Q462 70 552 204Q667 376 704 662Q715 741 715 814Q715 946 650 946Q585 946 499 851Q379 718 308 536Q238 354 238 227Z" fill="#143d59" style=""></path></g><g transform="matrix(1,0,0,1,6506,0)"><path fill="#143d59" style=""></path></g><g transform="matrix(1,0,0,1,7356,0)"><path d="M209 1094Q239 1090 262 1090L301 1090Q316 1090 332 1092L338 1143Q369 1404 434 1706Q88 1614 27 1544Q7 1532 -8 1532Q-45 1532 -45 1569Q-45 1668 375 1782Q425 1795 457 1804Q476 1884 492 1939Q513 1970 543 1970Q580 1970 580 1935Q580 1921 571 1907L555 1831Q1032 1951 1653 1960Q1688 1950 1688 1925Q1688 1907 1673 1889Q1658 1872 1638 1866Q1017 1857 535 1733Q506 1589 477 1446Q448 1304 432 1157L426 1102L539 1114Q695 1128 844 1131Q994 1135 1049 1137Q1079 1125 1079 1104Q1079 1083 1062 1065Q1046 1048 1024 1044Q944 1040 812 1037Q680 1035 530 1024L414 1010Q366 647 268 188Q248 97 225 -12Q206 -53 168 -53Q137 -53 133 -12Q247 529 275 715Q304 902 317 999Q300 997 284 997L250 997Q206 997 175 1004Q145 1011 145 1036Q145 1055 164 1073Q183 1092 209 1094Z" fill="#143d59" style=""></path></g><g transform="matrix(1,0,0,1,8331,0)"><path d="M150 0Q33 0 33 147Q33 294 142 507Q252 721 400 876Q548 1032 641 1032Q735 1032 748 950Q752 925 754 897Q763 903 776 903Q823 903 823 858L823 850Q823 847 798 760Q773 673 741 470Q709 267 709 123Q718 117 730 109Q742 102 760 86Q778 71 778 50Q778 29 765 12Q752 -4 728 -4Q679 -4 639 46Q600 96 600 154Q600 279 668 584Q583 406 448 241Q313 76 261 38Q210 0 150 0ZM135 143Q135 106 166 106Q188 106 203 121Q410 299 574 614Q667 794 672 821Q678 848 678 867Q678 886 668 903Q658 920 640 920Q622 920 587 901Q510 859 397 722Q285 585 210 424Q135 263 135 143Z" fill="#143d59" style=""></path></g><g transform="matrix(1,0,0,1,9251,0)"><path d="M387 956Q287 956 287 840Q287 763 323 681Q359 599 384 550Q481 357 481 254Q481 152 419 80Q357 8 240 -6L227 -6Q114 -6 63 133Q61 138 61 142L61 152Q61 173 74 186Q87 200 102 203L113 203Q133 203 145 187Q158 171 169 151Q180 132 193 116Q206 100 238 100Q306 100 346 142Q387 185 387 237Q387 289 372 334Q347 411 286 526Q184 715 184 820Q184 925 237 992Q290 1059 387 1059Q447 1059 490 1034Q571 987 571 928Q571 870 522 870Q504 870 492 883Q481 897 468 913Q433 956 387 956Z" fill="#143d59" style=""></path></g><g transform="matrix(1,0,0,1,9884,0)"><path d="M191 66L193 31Q193 -16 117 -16Q82 -16 82 18Q82 52 282 970Q431 1673 471 1919L479 1946Q488 1976 515 1976Q566 1976 580 1925Q572 1887 558 1819Q545 1751 527 1664Q509 1577 488 1476Q467 1375 445 1271Q423 1167 378 953Q333 739 301 594Q510 1024 696 1024Q772 1024 809 964Q846 905 846 833Q846 761 820 632L786 460Q730 177 730 122L733 44Q733 18 715 2Q698 -14 669 -14Q640 -14 626 6Q613 27 613 46Q613 65 616 80L735 745Q741 777 741 819Q741 922 684 922Q576 922 390 599Q285 416 261 345Q237 275 214 183Q191 92 191 66Z" fill="#143d59" style=""></path></g><g transform="matrix(1,0,0,1,10842,0)"><path d="M383 1376Q442 1376 442 1317Q442 1231 382 1220Q365 1217 345 1217Q325 1217 305 1237Q285 1257 285 1288Q285 1320 316 1348Q347 1376 383 1376ZM242 909L242 929Q242 943 227 997Q227 1022 244 1042Q261 1063 285 1063Q310 1063 326 1032Q342 1001 342 964Q342 927 248 522Q154 117 154 95Q154 74 174 74Q187 74 211 99Q235 125 252 125Q285 125 285 83Q285 42 223 11Q161 -20 133 -20Q63 -20 63 92Q63 115 72 143Q82 172 92 222Q103 273 122 360Q142 447 162 540Q183 633 212 765Q242 898 242 909Z" fill="#143d59" style=""></path></g><g transform="matrix(1,0,0,1,11280,0)"><g transform="matrix(4.0164,0,0,4.0164,-210.1048,1311.0161)"><g transform="matrix(1,0,0,-1,0,0)">
<g>
	<path d="M304.2,201.4c0-0.5,0-0.9,0-1.4c0-18.1-4.6-35.9-13.6-51.6l0,0l23.6-13.9c-8.3-14.1-19.1-26.6-31.9-36.8v0l-16.8,21.1
		c-14.7-11.9-32.2-19.4-50.6-22.1l3.8-26.4c-16.2-2.3-32.7-1.6-48.6,2l6,26.1c-9.4,2.2-18.7,5.8-27.6,10.9
		c-7.6,4.3-14.6,9.6-20.8,15.5L109,105c-11.9,11.2-21.7,24.5-28.8,39.3l25.1,12.1l0,0c-6.2,13.5-9.6,28.3-9.6,43.6
		c0,3.3,0.2,6.7,0.5,10l-28.7,2.3c1.3,16.3,5.6,32.3,12.8,47l26.4-12.8c0,0,0,0,0,0c8.2,16.3,20.4,30.2,35.6,40.3l-16.7,24.7
		c13.6,9.2,28.7,15.8,44.7,19.4l6.6-29.3c17.7,4,36.2,3.3,53.6-2l8.9,28.5c15.6-4.9,30.2-12.7,43-22.9l-18.4-23.1
		c14.4-11.3,25.6-26.1,32.5-43c0,0,0,0,0-0.1l26.8,10.4c5.9-15.3,9-31.5,8.9-47.9v-0.2L304.2,201.4z M279.2,201.4
		C279.2,201.4,279.2,201.4,279.2,201.4L279.2,201.4c-0.1,7.3-1.3,14.5-3.3,21.4c-0.7,2.5-1.6,4.9-2.6,7.3
		c-5.4,13.2-14.1,24.3-24.8,32.6l0,0c-4.7,3.7-9.8,6.8-15.2,9.3c-0.3,0.1-0.6,0.3-0.9,0.4c-0.8,0.3-1.5,0.7-2.3,1
		c-0.5,0.2-0.9,0.4-1.4,0.5c-0.6,0.2-1.2,0.5-1.8,0.7c-0.5,0.2-1.1,0.4-1.6,0.5c-0.6,0.2-1.1,0.4-1.7,0.6c-12.9,4-27,4.8-41,1.6
		c-9.3-2.1-18.2-5.9-26.2-11.2c-11.5-7.6-20.9-18.1-27.1-30.4c-4.4-8.6-7.1-18-8.1-27.6c-0.3-2.6-0.4-5.3-0.4-8
		c0-11.3,2.4-22.5,7.1-32.8c0.4-0.8,0.7-1.5,1.1-2.3c0.1-0.3,0.3-0.5,0.4-0.8c0.2-0.3,0.3-0.6,0.5-0.9c0.5-0.9,0.9-1.7,1.4-2.6
		c0,0,0,0,0,0c3.7-6.4,8.3-12.3,13.6-17.4l0,0c10.3-10,23.3-17.1,37.3-20.3c0.8-0.2,1.7-0.4,2.5-0.5c0.3-0.1,0.6-0.1,0.9-0.2
		c1.2-0.2,2.4-0.4,3.5-0.6c0,0,0.1,0,0.1,0c1.1-0.2,2.3-0.3,3.4-0.4c0.2,0,0.5,0,0.7-0.1c0.9-0.1,1.9-0.1,2.8-0.2c0.3,0,0.6,0,0.9,0
		c0.9,0,1.7-0.1,2.6-0.1c0.4,0,0.7,0,1.1,0c0.8,0,1.7,0,2.5,0.1c0.4,0,0.7,0,1.1,0c0.8,0,1.7,0.1,2.5,0.2c0.3,0,0.7,0.1,1,0.1
		c1,0.1,2.1,0.2,3.1,0.4c0.1,0,0.2,0,0.4,0c14.1,2,27.5,7.9,38.5,16.9c7.7,6.3,14.2,13.9,19.1,22.6c6.7,11.9,10.2,25.3,10.2,38.9
		C279.2,200.5,279.2,200.9,279.2,201.4z" fill="#143d59" style=""></path>
	<polygon points="158.5,199.8 181.8,192 184.1,178.9 146.1,193.7 144.2,204.7 177,219.5 179.1,207.4 	" fill="#143d59" style=""></polygon>
	<polygon points="209.9,164.7 178.7,229.8 188.8,229.8 220,164.7 	" fill="#143d59" style=""></polygon>
	<polygon points="220.3,191.6 240.7,199.2 217.6,207 215.3,220.1 253.1,205.3 255,194.3 222.4,179.5 	" fill="#143d59" style=""></polygon>
</g>
<desc>Created with Snap</desc><defs></defs></g></g></g><g transform="matrix(1,0,0,1,12465.142,0)"><path d="M698 810Q698 909 644 909Q572 909 369 496Q277 309 240 213Q204 118 186 79Q168 40 150 20Q133 0 111 0Q90 0 86 10Q82 21 82 48Q82 76 162 520Q243 965 255 988Q268 1011 278 1017Q288 1024 314 1024Q340 1024 354 1004Q369 984 369 968Q369 953 365 938Q358 911 344 871Q296 734 252 483L231 362Q254 410 283 477Q312 545 369 671Q426 797 496 896Q586 1026 664 1026Q801 1026 801 805Q801 722 777 598Q754 474 725 327Q697 180 694 84L682 29Q682 7 675 -3Q669 -12 636 -12Q604 -12 589 0Q575 12 580 43L680 641Q698 752 698 810Z" fill="#143d59" style=""></path></g></g></g></g></svg>